<?xml version="1.0" encoding="UTF-8" standalone="no"?>
<svg xmlns="http://www.w3.org/2000/svg" version="1.1" width="120.000000" height="130.500000">
<style type="text/css">
path { fill: none; stroke: black; stroke-width: 1.500000; stroke-linejoin: round; stroke-linecap: round; }
text { fill: black; font-family: Sans; text-anchor: middle; text-align: center; }
.G { fill: rgb(255, 128, 128); }
.G1 { fill: rgb(255, 64, 64); }
.F { fill: rgb(255, 192, 128); }
.Y { fill: rgb(255, 255, 128); }
.S { fill: rgb(128, 255, 128); }
.D { fill: rgb(128, 255, 255); }
.P { fill: rgb(128, 128, 255); }
.X { fill: rgb(192, 128, 255); }
.J { fill: rgb(255, 128, 255); }
.L { fill: rgb(128, 128, 128); }
.optional { stroke-dasharray: 5; }
.arrow { fill: rgba(0, 0, 0, 0.2); stroke: none; }
</style>
<path class="X" d="M 60.000000 15.538476L 15.000000 41.519238L 15.000000 93.480762L 60.000000 119.461524L 105.000000 93.480762L 105.000000 41.519238 z"/>
<path class="arrow" d="M 64.988306 98.676915L 64.988306 55.029234L 75.588457 55.029234L 60.000000 36.323085L 44.411543 55.029234L 55.011694 55.029234L 55.011694 98.676915 z"/>
<text style="font-size: 18.000000px" x="60.000000" y="73.800000">X</text>
<circle class="startpoint" cx="60.000000" cy="15.538476" r="9.000000"/>
<circle class="edgesep" cx="15.000000" cy="41.519238" r="4.500000"/>
<circle class="edgesep" cx="15.000000" cy="93.480762" r="4.500000"/>
<circle class="edgesep" cx="60.000000" cy="119.461524" r="4.500000"/>
<circle class="edgesep" cx="105.000000" cy="93.480762" r="4.500000"/>
<circle class="edgesep" cx="105.000000" cy="41.519238" r="4.500000"/>
<text style="font-size: 12.000000px" x="41.656922" y="39.928857">0</text>
<text style="font-size: 12.000000px" x="23.313844" y="71.700000">1</text>
<text style="font-size: 12.000000px" x="41.656922" y="103.471143">2</text>
<text style="font-size: 12.000000px" x="78.343078" y="103.471143">3</text>
<text style="font-size: 12.000000px" x="96.686156" y="71.700000">4</text>
<text style="font-size: 12.000000px" x="78.343078" y="39.928857">5</text>
</svg>
