<?xml version="1.0" encoding="UTF-8" standalone="no"?>
<svg xmlns="http://www.w3.org/2000/svg" version="1.1" width="186.20000000000007" height="136.10381056766587">
<style type="text/css">
path { fill: none; stroke: rgb(160,160,160); stroke-width: 1.5; stroke-linejoin: round; stroke-linecap: round; }
.outline { stroke: rgba(0, 0, 0, 0.15); stroke-width: 1.5; fill: none; }
.arrow { stroke: rgba(0, 0, 0, 0.4); stroke-width: 1.5; fill: none; }
.tile { stroke: black; stroke-width: 1.5; fill: none; }
.angle { stroke: black; stroke-width: 1.5; fill: none; }
.blob { stroke: none; fill: black; }
</style>
<path class="tile" d="M 138.10000000000005 133.0038105676658 L 168.10000000000005 133.0038105676658 L 183.10000000000005 107.02304845413262 L 138.10000000000002 81.04228634059947 L 138.10000000000002 29.080762113533147 L 108.10000000000001 29.08076211353316 L 93.10000000000001 3.1000000000000085 L 48.09999999999998 29.0807621135332 L 48.10000000000001 81.04228634059955 L 18.10000000000001 81.04228634059957 L 3.1000000000000085 107.02304845413275 L 48.10000000000005 133.0038105676659 L 93.10000000000007 107.02304845413266 L 108.10000000000008 133.00381056766585 z"/>
<circle class="blob" cx="138.10000000000005" cy="133.0038105676658" r="2.1"/>
<circle class="blob" cx="168.10000000000005" cy="133.0038105676658" r="2.1"/>
<circle class="blob" cx="183.10000000000005" cy="107.02304845413262" r="2.1"/>
<circle class="blob" cx="138.10000000000002" cy="81.04228634059947" r="2.1"/>
<circle class="blob" cx="138.10000000000002" cy="29.080762113533147" r="2.1"/>
<circle class="blob" cx="108.10000000000001" cy="29.08076211353316" r="2.1"/>
<circle class="blob" cx="93.10000000000001" cy="3.1000000000000085" r="2.1"/>
<circle class="blob" cx="48.09999999999998" cy="29.0807621135332" r="2.1"/>
<circle class="blob" cx="48.10000000000001" cy="81.04228634059955" r="2.1"/>
<circle class="blob" cx="18.10000000000001" cy="81.04228634059957" r="2.1"/>
<circle class="blob" cx="3.1000000000000085" cy="107.02304845413275" r="2.1"/>
<circle class="blob" cx="48.10000000000005" cy="133.0038105676659" r="2.1"/>
<circle class="blob" cx="93.10000000000007" cy="107.02304845413266" r="2.1"/>
<circle class="blob" cx="108.10000000000008" cy="133.00381056766585" r="2.1"/>
</svg>
