<?xml version="1.0" encoding="UTF-8" standalone="no"?>
<svg xmlns="http://www.w3.org/2000/svg" version="1.1" width="286.000000" height="318.500000">
<style type="text/css">
path { fill: none; stroke: black; stroke-width: 1.500000; stroke-linejoin: round; stroke-linecap: round; }
text { fill: black; font-family: Sans; text-anchor: middle; text-align: center; }
.G { fill: rgb(255, 128, 128); }
.G1 { fill: rgb(255, 64, 64); }
.F { fill: rgb(255, 192, 128); }
.Y { fill: rgb(255, 255, 128); }
.S { fill: rgb(128, 255, 128); }
.D { fill: rgb(128, 255, 255); }
.P { fill: rgb(128, 128, 255); }
.X { fill: rgb(192, 128, 255); }
.J { fill: rgb(255, 128, 255); }
.L { fill: rgb(128, 128, 128); }
.optional { stroke-dasharray: 5; }
.arrow { fill: rgba(0, 0, 0, 0.2); stroke: none; }
</style>
<path class="F" d="M 104.000000 81.016660L 143.000000 103.533321L 182.000000 81.016660L 182.000000 35.983340L 143.000000 13.466679L 104.000000 35.983340 z"/>
<path class="arrow" d="M 164.238401 41.246004L 131.478401 60.159999L 126.885002 52.203999L 119.600000 72.009996L 140.394998 75.603999L 135.801599 67.647999L 168.561599 48.734004 z"/>
<text style="font-size: 15.600000px" x="143.000000" y="63.960000">0 (F)</text>
<path class="P" d="M 182.000000 35.983340L 182.000000 81.016660L 221.000000 103.533321L 260.000000 81.016660L 260.000000 35.983340L 221.000000 13.466679 z"/>
<path class="arrow" d="M 246.561599 68.265996L 213.801599 49.352001L 218.394998 41.396001L 197.600000 44.990004L 204.885002 64.796001L 209.478401 56.840001L 242.238401 75.753996 z"/>
<text style="font-size: 15.600000px" x="221.000000" y="63.960000">1 (P)</text>
<path class="G" d="M 104.000000 81.016660L 65.000000 103.533321L 65.000000 148.566642L 104.000000 171.083302L 143.000000 148.566642L 143.000000 103.533321 z"/>
<path class="arrow" d="M 108.323199 153.069974L 108.323199 115.241984L 117.509996 115.241984L 104.000000 99.029989L 90.490004 115.241984L 99.676801 115.241984L 99.676801 153.069974 z"/>
<text style="font-size: 15.600000px" x="104.000000" y="131.509981">2 (G)</text>
<path class="S" d="M 143.000000 103.533321L 143.000000 148.566642L 182.000000 171.083302L 221.000000 148.566642L 221.000000 103.533321L 182.000000 81.016660 z"/>
<path class="arrow" d="M 207.561599 135.815978L 174.801599 116.901983L 179.394998 108.945983L 158.600000 112.539985L 165.885002 132.345983L 170.478401 124.389983L 203.238401 143.303978 z"/>
<text style="font-size: 15.600000px" x="182.000000" y="131.509981">3 (S)</text>
<path class="Y" d="M 104.000000 216.116623L 104.000000 171.083302L 65.000000 148.566642L 26.000000 171.083302L 26.000000 216.116623L 65.000000 238.633284 z"/>
<path class="arrow" d="M 39.438401 183.833967L 72.198401 202.747962L 67.605002 210.703962L 88.400000 207.109959L 81.114998 187.303962L 76.521599 195.259962L 43.761599 176.345967 z"/>
<text style="font-size: 15.600000px" x="65.000000" y="199.059963">4 (Y)</text>
<path class="D" d="M 182.000000 171.083302L 143.000000 148.566642L 104.000000 171.083302L 104.000000 216.116623L 143.000000 238.633284L 182.000000 216.116623 z"/>
<path class="arrow" d="M 121.761599 210.853959L 154.521599 191.939964L 159.114998 199.895964L 166.400000 180.089967L 145.605002 176.495964L 150.198401 184.451964L 117.438401 203.365959 z"/>
<text style="font-size: 15.600000px" x="143.000000" y="199.059963">5 (D)</text>
<path class="F" d="M 221.000000 148.566642L 182.000000 171.083302L 182.000000 216.116623L 221.000000 238.633284L 260.000000 216.116623L 260.000000 171.083302 z"/>
<path class="arrow" d="M 225.323199 220.619956L 225.323199 182.791966L 234.509996 182.791966L 221.000000 166.579970L 207.490004 182.791966L 216.676801 182.791966L 216.676801 220.619956 z"/>
<text style="font-size: 15.600000px" x="221.000000" y="199.059963">6 (F)</text>
<path class="P" d="M 221.000000 238.633284L 182.000000 216.116623L 143.000000 238.633284L 143.000000 283.666605L 182.000000 306.183265L 221.000000 283.666605 z"/>
<path class="arrow" d="M 160.761599 278.403941L 193.521599 259.489946L 198.114998 267.445946L 205.400000 247.639948L 184.605002 244.045946L 189.198401 252.001946L 156.438401 270.915941 z"/>
<text style="font-size: 15.600000px" x="182.000000" y="266.609944">7 (P)</text>
<circle class="startpoint" cx="26.000000" cy="171.083302" r="7.800000"/>
<circle class="edgesep" cx="65.000000" cy="103.533321" r="3.900000"/>
<circle class="edgesep" cx="221.000000" cy="13.466679" r="3.900000"/>
<circle class="edgesep" cx="260.000000" cy="81.016660" r="3.900000"/>
<circle class="edgesep" cx="221.000000" cy="283.666605" r="3.900000"/>
<circle class="edgesep" cx="143.000000" cy="283.666605" r="3.900000"/>
<text style="font-size: 10.400000px" x="33.205331" y="197.239963">3</text>
<text style="font-size: 10.400000px" x="40.096001" y="154.104972">0.0</text>
<text style="font-size: 10.400000px" x="72.205331" y="129.689981">1</text>
<text style="font-size: 10.400000px" x="79.096001" y="86.554991">0.1</text>
<text style="font-size: 10.400000px" x="111.205331" y="62.140000">5</text>
<text style="font-size: 10.400000px" x="118.096001" y="19.005009">2.1</text>
<text style="font-size: 10.400000px" x="15.192003" y="197.239963">4.5</text>
<text style="font-size: 10.400000px" x="49.102666" y="224.774954">4</text>
<text style="font-size: 10.400000px" x="49.102666" y="169.704972">2</text>
<text style="font-size: 10.400000px" x="54.192003" y="129.689981">1.0</text>
<text style="font-size: 10.400000px" x="88.102666" y="157.224972">2</text>
<text style="font-size: 10.400000px" x="88.102666" y="102.154991">0</text>
<text style="font-size: 10.400000px" x="93.192003" y="62.140000">1.1</text>
<text style="font-size: 10.400000px" x="127.102666" y="89.674991">0</text>
<text style="font-size: 10.400000px" x="127.102666" y="34.605009">4</text>
<text style="font-size: 10.400000px" x="167.903999" y="19.005009">3.1</text>
<text style="font-size: 10.400000px" x="40.096001" y="240.374954">3.5</text>
<text style="font-size: 10.400000px" x="80.897334" y="224.774954">5</text>
<text style="font-size: 10.400000px" x="80.897334" y="169.704972">1</text>
<text style="font-size: 10.400000px" x="111.205331" y="197.239963">2</text>
<text style="font-size: 10.400000px" x="119.897334" y="157.224972">3</text>
<text style="font-size: 10.400000px" x="119.897334" y="102.154991">5</text>
<text style="font-size: 10.400000px" x="150.205331" y="129.689981">0</text>
<text style="font-size: 10.400000px" x="158.897334" y="89.674991">1</text>
<text style="font-size: 10.400000px" x="158.897334" y="34.605009">3</text>
<text style="font-size: 10.400000px" x="189.205331" y="62.140000">0</text>
<text style="font-size: 10.400000px" x="196.096001" y="19.005009">4.1</text>
<text style="font-size: 10.400000px" x="89.903999" y="240.374954">2.5</text>
<text style="font-size: 10.400000px" x="96.794669" y="197.239963">0</text>
<text style="font-size: 10.400000px" x="127.102666" y="224.774954">3</text>
<text style="font-size: 10.400000px" x="127.102666" y="169.704972">1</text>
<text style="font-size: 10.400000px" x="135.794669" y="129.689981">4</text>
<text style="font-size: 10.400000px" x="166.102666" y="157.224972">1</text>
<text style="font-size: 10.400000px" x="166.102666" y="102.154991">5</text>
<text style="font-size: 10.400000px" x="174.794669" y="62.140000">2</text>
<text style="font-size: 10.400000px" x="205.102666" y="89.674991">1</text>
<text style="font-size: 10.400000px" x="205.102666" y="34.605009">5</text>
<text style="font-size: 10.400000px" x="245.903999" y="19.005009">0.2</text>
<text style="font-size: 10.400000px" x="118.096001" y="240.374954">1.5</text>
<text style="font-size: 10.400000px" x="150.205331" y="264.789944">2</text>
<text style="font-size: 10.400000px" x="158.897334" y="224.774954">4</text>
<text style="font-size: 10.400000px" x="158.897334" y="169.704972">0</text>
<text style="font-size: 10.400000px" x="189.205331" y="197.239963">1</text>
<text style="font-size: 10.400000px" x="197.897334" y="157.224972">2</text>
<text style="font-size: 10.400000px" x="197.897334" y="102.154991">4</text>
<text style="font-size: 10.400000px" x="231.807997" y="129.689981">1.3</text>
<text style="font-size: 10.400000px" x="236.897334" y="89.674991">2</text>
<text style="font-size: 10.400000px" x="236.897334" y="34.605009">4</text>
<text style="font-size: 10.400000px" x="270.807997" y="62.140000">1.2</text>
<text style="font-size: 10.400000px" x="132.192003" y="264.789944">0.5</text>
<text style="font-size: 10.400000px" x="166.102666" y="292.324935">3</text>
<text style="font-size: 10.400000px" x="166.102666" y="237.254954">1</text>
<text style="font-size: 10.400000px" x="174.794669" y="197.239963">5</text>
<text style="font-size: 10.400000px" x="205.102666" y="224.774954">2</text>
<text style="font-size: 10.400000px" x="205.102666" y="169.704972">0</text>
<text style="font-size: 10.400000px" x="213.794669" y="129.689981">3</text>
<text style="font-size: 10.400000px" x="245.903999" y="154.104972">2.3</text>
<text style="font-size: 10.400000px" x="245.903999" y="105.274991">0.3</text>
<text style="font-size: 10.400000px" x="252.794669" y="62.140000">3</text>
<text style="font-size: 10.400000px" x="157.096001" y="307.924935">1.4</text>
<text style="font-size: 10.400000px" x="197.897334" y="292.324935">4</text>
<text style="font-size: 10.400000px" x="197.897334" y="237.254954">0</text>
<text style="font-size: 10.400000px" x="231.807997" y="264.789944">5.3</text>
<text style="font-size: 10.400000px" x="236.897334" y="224.774954">3</text>
<text style="font-size: 10.400000px" x="236.897334" y="169.704972">5</text>
<text style="font-size: 10.400000px" x="270.807997" y="197.239963">3.3</text>
<text style="font-size: 10.400000px" x="206.903999" y="307.924935">0.4</text>
<text style="font-size: 10.400000px" x="213.794669" y="264.789944">5</text>
<text style="font-size: 10.400000px" x="245.903999" y="240.374954">4.3</text>
<text style="font-size: 10.400000px" x="252.794669" y="197.239963">4</text>
</svg>
