<?xml version="1.0" encoding="UTF-8" standalone="no"?>
<svg xmlns="http://www.w3.org/2000/svg" version="1.1" width="220.000000" height="245.000000">
<style type="text/css">
path { fill: none; stroke: black; stroke-width: 1.500000; stroke-linejoin: round; stroke-linecap: round; }
text { fill: black; font-family: Sans; text-anchor: middle; text-align: center; }
.G { fill: rgb(255, 128, 128); }
.G1 { fill: rgb(255, 64, 64); }
.F { fill: rgb(255, 192, 128); }
.Y { fill: rgb(255, 255, 128); }
.S { fill: rgb(128, 255, 128); }
.D { fill: rgb(128, 255, 255); }
.P { fill: rgb(128, 128, 255); }
.X { fill: rgb(192, 128, 255); }
.J { fill: rgb(255, 128, 255); }
.L { fill: rgb(128, 128, 128); }
.optional { stroke-dasharray: 5; }
.arrow { fill: rgba(0, 0, 0, 0.2); stroke: none; }
</style>
<path class="" d="M 110.000000 10.358984L 80.000000 27.679492L 80.000000 62.320508L 110.000000 79.641016L 140.000000 62.320508L 140.000000 27.679492 z"/>
<text style="font-size: 12.000000px" x="110.000000" y="49.200000">0</text>
<path class="" d="M 170.000000 10.358984L 140.000000 27.679492L 140.000000 62.320508L 170.000000 79.641016L 200.000000 62.320508L 200.000000 27.679492 z"/>
<text style="font-size: 12.000000px" x="170.000000" y="49.200000">1</text>
<path class="" d="M 80.000000 62.320508L 50.000000 79.641016L 50.000000 114.282032L 80.000000 131.602540L 110.000000 114.282032L 110.000000 79.641016 z"/>
<text style="font-size: 12.000000px" x="80.000000" y="101.161524">2</text>
<path class="" d="M 140.000000 62.320508L 110.000000 79.641016L 110.000000 114.282032L 140.000000 131.602540L 170.000000 114.282032L 170.000000 79.641016 z"/>
<text style="font-size: 12.000000px" x="140.000000" y="101.161524">3</text>
<path class="" d="M 50.000000 114.282032L 20.000000 131.602540L 20.000000 166.243557L 50.000000 183.564065L 80.000000 166.243557L 80.000000 131.602540 z"/>
<text style="font-size: 12.000000px" x="50.000000" y="153.123048">4</text>
<path class="" d="M 110.000000 114.282032L 80.000000 131.602540L 80.000000 166.243557L 110.000000 183.564065L 140.000000 166.243557L 140.000000 131.602540 z"/>
<text style="font-size: 12.000000px" x="110.000000" y="153.123048">5</text>
<path class="" d="M 170.000000 114.282032L 140.000000 131.602540L 140.000000 166.243557L 170.000000 183.564065L 200.000000 166.243557L 200.000000 131.602540 z"/>
<text style="font-size: 12.000000px" x="170.000000" y="153.123048">6</text>
<path class="optional" d="M 140.000000 166.243557L 110.000000 183.564065L 110.000000 218.205081L 140.000000 235.525589L 170.000000 218.205081L 170.000000 183.564065 z"/>
<text style="font-size: 12.000000px" x="140.000000" y="205.084573">7</text>
</svg>
