<?xml version="1.0" encoding="UTF-8" standalone="no"?>
<svg xmlns="http://www.w3.org/2000/svg" version="1.1" width="160.000000" height="174.000000">
<style type="text/css">
path { fill: none; stroke: black; stroke-width: 1.500000; stroke-linejoin: round; stroke-linecap: round; }
text { fill: black; font-family: Sans; text-anchor: middle; text-align: center; }
.G { fill: rgb(255, 128, 128); }
.G1 { fill: rgb(255, 64, 64); }
.F { fill: rgb(255, 192, 128); }
.Y { fill: rgb(255, 255, 128); }
.S { fill: rgb(128, 255, 128); }
.D { fill: rgb(128, 255, 255); }
.P { fill: rgb(128, 128, 255); }
.X { fill: rgb(192, 128, 255); }
.J { fill: rgb(255, 128, 255); }
.L { fill: rgb(128, 128, 128); }
.optional { stroke-dasharray: 5; }
.arrow { fill: rgba(0, 0, 0, 0.2); stroke: none; }
</style>
<path class="P" d="M 80.000000 20.717968L 54.285714 35.564117L 59.234431 44.135546L 50.663002 49.084263L 45.714286 40.512834L 20.000000 55.358984L 20.000000 65.256417L 29.897433 75.153850L 20.000000 75.153850L 20.000000 124.641016L 28.571429 129.589733L 32.194141 143.109878L 37.142857 134.538449L 62.857143 149.384599L 57.908426 157.956028L 71.428571 154.333316L 80.000000 159.282032L 88.571429 154.333316L 92.194141 140.813171L 97.142857 149.384599L 122.857143 134.538449L 117.908426 125.967021L 131.428571 129.589733L 140.000000 124.641016L 140.000000 75.153850L 149.897433 75.153850L 140.000000 65.256417L 140.000000 55.358984L 131.428571 50.410267L 117.908426 54.032979L 122.857143 45.461551L 114.285714 40.512834L 109.336998 49.084263L 100.765569 44.135546L 105.714286 35.564117L 97.142857 30.615401L 92.194141 39.186829L 88.571429 25.666684 z"/>
<path class="arrow" d="M 86.651075 131.569219L 86.651075 73.372312L 100.784610 73.372312L 80.000000 48.430781L 59.215390 73.372312L 73.348925 73.372312L 73.348925 131.569219 z"/>
<text style="font-size: 24.000000px" x="80.000000" y="98.400000">P</text>
</svg>
