<?xml version="1.0" encoding="UTF-8" standalone="no"?>
<svg xmlns="http://www.w3.org/2000/svg" version="1.1" width="220.000000" height="245.000000">
<style type="text/css">
path { fill: none; stroke: black; stroke-width: 1.500000; stroke-linejoin: round; stroke-linecap: round; }
text { fill: black; font-family: Sans; text-anchor: middle; text-align: center; }
.G { fill: rgb(255, 128, 128); }
.G1 { fill: rgb(255, 64, 64); }
.F { fill: rgb(255, 192, 128); }
.Y { fill: rgb(255, 255, 128); }
.S { fill: rgb(128, 255, 128); }
.D { fill: rgb(128, 255, 255); }
.P { fill: rgb(128, 128, 255); }
.X { fill: rgb(192, 128, 255); }
.J { fill: rgb(255, 128, 255); }
.L { fill: rgb(128, 128, 128); }
.optional { stroke-dasharray: 5; }
.arrow { fill: rgba(0, 0, 0, 0.2); stroke: none; }
</style>
<path class="F" d="M 80.000000 62.320508L 92.857143 69.743583L 95.331501 65.457869L 99.617215 67.932227L 97.142857 72.217941L 110.000000 79.641016L 122.857143 72.217941L 125.331501 76.503656L 129.617215 74.029297L 127.142857 69.743583L 131.428571 67.269225L 133.902930 71.554939L 135.714286 64.794866L 140.000000 62.320508L 140.000000 47.474358L 144.948717 47.474358L 144.948717 42.525642L 140.000000 42.525642L 140.000000 27.679492L 135.714286 25.205134L 128.954213 27.016490L 131.428571 22.730775L 118.571429 15.307700L 116.097070 19.593415L 114.285714 12.833342L 110.000000 10.358984L 105.714286 12.833342L 98.954213 11.021986L 101.428571 15.307700L 88.571429 22.730775L 86.097070 18.445061L 84.285714 25.205134L 80.000000 27.679492L 80.000000 32.628209L 75.051283 37.576925L 80.000000 37.576925L 80.000000 52.423075L 84.948717 52.423075L 80.000000 57.371791 z"/>
<path class="arrow" d="M 126.337231 31.727695L 101.137231 46.276922L 97.603848 40.156922L 92.000000 55.392305L 107.996152 58.156922L 104.462769 52.036922L 129.662769 37.487695 z"/>
<text style="font-size: 12.000000px" x="110.000000" y="49.200000">F</text>
<path class="X" d="M 140.000000 27.679492L 140.000000 42.525642L 144.948717 42.525642L 144.948717 47.474358L 140.000000 47.474358L 140.000000 62.320508L 144.285714 64.794866L 151.045787 62.983510L 148.571429 67.269225L 170.000000 79.641016L 174.285714 77.166658L 181.045787 78.978014L 178.571429 74.692300L 191.428571 67.269225L 193.902930 71.554939L 195.714286 64.794866L 200.000000 62.320508L 200.000000 57.371791L 204.948717 52.423075L 200.000000 52.423075L 200.000000 47.474358L 204.948717 47.474358L 204.948717 42.525642L 200.000000 42.525642L 200.000000 37.576925L 204.948717 37.576925L 200.000000 32.628209L 200.000000 27.679492L 187.142857 20.256417L 189.617215 15.970703L 185.331501 13.496344L 182.857143 17.782059L 170.000000 10.358984L 165.714286 12.833342L 158.954213 11.021986L 161.428571 15.307700L 148.571429 22.730775L 151.045787 27.016490L 144.285714 25.205134 z"/>
<path class="arrow" d="M 189.662769 52.512305L 164.462769 37.963078L 167.996152 31.843078L 152.000000 34.607695L 157.603848 49.843078L 161.137231 43.723078L 186.337231 58.272305 z"/>
<text style="font-size: 12.000000px" x="170.000000" y="49.200000">X</text>
<path class="G" d="M 80.000000 62.320508L 67.142857 69.743583L 69.617215 74.029297L 65.331501 76.503656L 62.857143 72.217941L 50.000000 79.641016L 50.000000 84.589733L 54.948717 89.538449L 50.000000 89.538449L 50.000000 114.282032L 71.428571 126.653824L 68.954213 130.939538L 75.714286 129.128182L 80.000000 131.602540L 84.285714 129.128182L 86.097070 122.368109L 88.571429 126.653824L 92.857143 124.179465L 90.382785 119.893751L 94.668499 117.419393L 97.142857 121.705107L 110.000000 114.282032L 110.000000 89.538449L 105.051283 89.538449L 110.000000 84.589733L 110.000000 79.641016L 97.142857 72.217941L 99.617215 67.932227L 95.331501 65.457869L 92.857143 69.743583 z"/>
<path class="arrow" d="M 83.325538 117.746134L 83.325538 88.647680L 90.392305 88.647680L 80.000000 76.176915L 69.607695 88.647680L 76.674462 88.647680L 76.674462 117.746134 z"/>
<text style="font-size: 12.000000px" x="80.000000" y="101.161524">G</text>
<path class="S" d="M 110.000000 79.641016L 110.000000 84.589733L 105.051283 89.538449L 110.000000 89.538449L 110.000000 114.282032L 114.285714 116.756391L 116.097070 123.516463L 118.571429 119.230749L 122.857143 121.705107L 120.382785 125.990821L 124.668499 128.465180L 127.142857 124.179465L 140.000000 131.602540L 152.857143 124.179465L 155.331501 128.465180L 159.617215 125.990821L 157.142857 121.705107L 170.000000 114.282032L 170.000000 109.333316L 165.051283 104.384599L 170.000000 104.384599L 170.000000 89.538449L 165.051283 89.538449L 170.000000 84.589733L 170.000000 79.641016L 148.571429 67.269225L 151.045787 62.983510L 144.285714 64.794866L 140.000000 62.320508L 135.714286 64.794866L 133.902930 71.554939L 131.428571 67.269225L 127.142857 69.743583L 129.617215 74.029297L 125.331501 76.503656L 122.857143 72.217941 z"/>
<path class="arrow" d="M 159.662769 104.473829L 134.462769 89.924602L 137.996152 83.804602L 122.000000 86.569219L 127.603848 101.804602L 131.137231 95.684602L 156.337231 110.233829 z"/>
<text style="font-size: 12.000000px" x="140.000000" y="101.161524">S</text>
<path class="P" d="M 80.000000 166.243557L 80.000000 151.397407L 75.051283 151.397407L 75.051283 146.448690L 80.000000 146.448690L 80.000000 131.602540L 75.714286 129.128182L 68.954213 130.939538L 71.428571 126.653824L 50.000000 114.282032L 45.714286 116.756391L 38.954213 114.945035L 41.428571 119.230749L 28.571429 126.653824L 26.097070 122.368109L 24.285714 129.128182L 20.000000 131.602540L 20.000000 136.551257L 24.948717 141.499974L 20.000000 141.499974L 20.000000 156.346123L 24.948717 156.346123L 20.000000 161.294840L 20.000000 166.243557L 41.428571 178.615348L 38.954213 182.901062L 45.714286 181.089706L 50.000000 183.564065L 54.285714 181.089706L 56.097070 174.329634L 58.571429 178.615348L 62.857143 176.140990L 60.382785 171.855275L 64.668499 169.380917L 67.142857 173.666631L 71.428571 171.192273L 68.954213 166.906559L 75.714286 168.717915 z"/>
<path class="arrow" d="M 30.337231 141.410744L 55.537231 155.959970L 52.003848 162.079970L 68.000000 159.315353L 62.396152 144.079970L 58.862769 150.199970L 33.662769 135.650744 z"/>
<text style="font-size: 12.000000px" x="50.000000" y="153.123048">P</text>
<path class="D" d="M 140.000000 131.602540L 127.142857 124.179465L 124.668499 128.465180L 120.382785 125.990821L 122.857143 121.705107L 118.571429 119.230749L 116.097070 123.516463L 114.285714 116.756391L 110.000000 114.282032L 97.142857 121.705107L 94.668499 117.419393L 90.382785 119.893751L 92.857143 124.179465L 88.571429 126.653824L 86.097070 122.368109L 84.285714 129.128182L 80.000000 131.602540L 80.000000 146.448690L 75.051283 146.448690L 75.051283 151.397407L 80.000000 151.397407L 80.000000 166.243557L 84.285714 168.717915L 91.045787 166.906559L 88.571429 171.192273L 101.428571 178.615348L 103.902930 174.329634L 105.714286 181.089706L 110.000000 183.564065L 131.428571 171.192273L 133.902930 175.477987L 135.714286 168.717915L 140.000000 166.243557L 140.000000 161.294840L 135.051283 156.346123L 140.000000 156.346123L 140.000000 151.397407L 135.051283 151.397407L 135.051283 146.448690L 140.000000 146.448690 z"/>
<path class="arrow" d="M 93.662769 162.195353L 118.862769 147.646127L 122.396152 153.766127L 128.000000 138.530744L 112.003848 135.766127L 115.537231 141.886127L 90.337231 156.435353 z"/>
<text style="font-size: 12.000000px" x="110.000000" y="153.123048">D</text>
<path class="J" d="M 170.000000 114.282032L 157.142857 121.705107L 159.617215 125.990821L 155.331501 128.465180L 152.857143 124.179465L 140.000000 131.602540L 140.000000 146.448690L 135.051283 146.448690L 135.051283 151.397407L 140.000000 151.397407L 140.000000 156.346123L 135.051283 156.346123L 140.000000 161.294840L 140.000000 166.243557L 152.857143 173.666631L 150.382785 177.952346L 154.668499 180.426704L 157.142857 176.140990L 170.000000 183.564065L 174.285714 181.089706L 181.045787 182.901062L 178.571429 178.615348L 182.857143 176.140990L 185.331501 180.426704L 189.617215 177.952346L 187.142857 173.666631L 191.428571 171.192273L 193.902930 175.477987L 195.714286 168.717915L 200.000000 166.243557L 200.000000 151.397407L 204.948717 151.397407L 204.948717 146.448690L 200.000000 146.448690L 200.000000 131.602540L 195.714286 129.128182L 193.902930 122.368109L 191.428571 126.653824L 178.571429 119.230749L 176.097070 123.516463L 174.285714 116.756391 z"/>
<path class="arrow" d="M 173.325538 169.707658L 173.325538 140.609205L 180.392305 140.609205L 170.000000 128.138439L 159.607695 140.609205L 166.674462 140.609205L 166.674462 169.707658 z"/>
<text style="font-size: 12.000000px" x="170.000000" y="153.123048">J</text>
</svg>
