<?xml version="1.0" encoding="UTF-8" standalone="no"?>
<svg xmlns="http://www.w3.org/2000/svg" version="1.1" width="217.500000" height="210.000000">
<style type="text/css">
path { fill: none; stroke: black; stroke-width: 1.500000; stroke-linejoin: round; stroke-linecap: round; }
text { fill: black; font-family: Sans; text-anchor: middle; text-align: center; }
.G { fill: rgb(255, 128, 128); }
.G1 { fill: rgb(255, 64, 64); }
.F { fill: rgb(255, 192, 128); }
.Y { fill: rgb(255, 255, 128); }
.S { fill: rgb(128, 255, 128); }
.D { fill: rgb(128, 255, 255); }
.P { fill: rgb(128, 128, 255); }
.X { fill: rgb(192, 128, 255); }
.J { fill: rgb(255, 128, 255); }
.L { fill: rgb(128, 128, 128); }
.optional { stroke-dasharray: 5; }
.arrow { fill: rgba(0, 0, 0, 0.2); stroke: none; }
</style>
<path class="S" d="M 210.000000 180.000000L 169.019238 190.980762L 139.019238 160.980762L 109.019238 190.980762L 68.038476 180.000000L 79.019238 139.019238L 49.019238 109.019238L 79.019238 79.019238L 68.038476 38.038476L 109.019238 27.057714L 139.019238 57.057714L 169.019238 87.057714L 158.038476 128.038476L 199.019238 139.019238 z"/>
<text style="font-size: 18.000000px" x="113.774047" y="122.083666">0</text>
<circle class="startpoint" cx="68.038476" cy="38.038476" r="9.000000"/>
<circle class="edgesep" cx="139.019238" cy="57.057714" r="4.500000"/>
<circle class="edgesep" cx="199.019238" cy="139.019238" r="4.500000"/>
<circle class="edgesep" cx="169.019238" cy="190.980762" r="4.500000"/>
<circle class="edgesep" cx="68.038476" cy="180.000000" r="4.500000"/>
<circle class="edgesep" cx="16.076952" cy="128.038476" r="4.500000"/>
<text style="font-size: 9.000000px" x="57.719238" y="133.469238">2.0</text>
<text style="font-size: 12.000000px" x="68.819238" y="103.019238">6</text>
<text style="font-size: 9.000000px" x="12.961373" y="153.984817">0.1</text>
<text style="font-size: 9.000000px" x="30.173293" y="149.372897">5.0</text>
<text style="font-size: 9.000000px" x="45.242135" y="186.265579">1.1</text>
<text style="font-size: 9.000000px" x="64.922897" y="63.984817">0.0</text>
<text style="font-size: 12.000000px" x="90.285779" y="43.305017">8</text>
<text style="font-size: 12.000000px" x="68.819238" y="123.419238">5</text>
<text style="font-size: 9.000000px" x="64.922897" y="160.353659">3.0</text>
<text style="font-size: 9.000000px" x="57.719238" y="90.869238">1.0</text>
<text style="font-size: 12.000000px" x="80.085779" y="60.971935">7</text>
<text style="font-size: 9.000000px" x="86.222897" y="27.092135">1.5</text>
<text style="font-size: 12.000000px" x="119.219238" y="51.057714">9</text>
<text style="font-size: 9.000000px" x="49.854055" y="169.053659">4.0</text>
<text style="font-size: 12.000000px" x="80.085779" y="165.466541">4</text>
<text style="font-size: 9.000000px" x="86.222897" y="197.246341">0.2</text>
<text style="font-size: 9.000000px" x="130.319238" y="38.907714">0.5</text>
<text style="font-size: 12.000000px" x="145.619238" y="84.657714">10</text>
<text style="font-size: 12.000000px" x="90.285779" y="183.133459">3</text>
<text style="font-size: 9.000000px" x="130.319238" y="185.430762">1.2</text>
<text style="font-size: 9.000000px" x="160.319238" y="68.907714">2.4</text>
<text style="font-size: 12.000000px" x="152.054243" y="108.673481">11</text>
<text style="font-size: 9.000000px" x="172.134817" y="113.004055">1.4</text>
<text style="font-size: 12.000000px" x="175.454243" y="149.203470">12</text>
<text style="font-size: 12.000000px" x="119.219238" y="175.380762">2</text>
<text style="font-size: 9.000000px" x="147.719238" y="185.430762">2.2</text>
<text style="font-size: 12.000000px" x="158.819238" y="175.380762">1</text>
<text style="font-size: 9.000000px" x="191.815579" y="197.246341">0.3</text>
<text style="font-size: 9.000000px" x="180.834817" y="128.072897">0.4</text>
<text style="font-size: 12.000000px" x="193.035006" y="166.784232">13</text>
<text style="font-size: 12.000000px" x="187.752697" y="183.133459">0</text>
<text style="font-size: 9.000000px" x="213.115579" y="160.353659">1.3</text>
<path class="extraedge" d="M 27.057714 169.019238L 68.038476 180.000000"/>
<path class="extraedge" d="M 16.076952 128.038476L 27.057714 169.019238"/>
<path class="extraedge" d="M 27.057714 169.019238L 16.076952 128.038476"/>
<path class="extraedge" d="M 68.038476 180.000000L 27.057714 169.019238"/>
</svg>
